<?xml version="1.0" standalone="no"?>
<!DOCTYPE svg PUBLIC "-//W3C//DTD SVG 20010904//EN"
 "http://www.w3.org/TR/2001/REC-SVG-20010904/DTD/svg10.dtd">
<svg version="1.0" xmlns="http://www.w3.org/2000/svg"
 width="300.000000pt" height="150.000000pt" viewBox="0 0 300.000000 150.000000"
 preserveAspectRatio="xMidYMid meet">

<g transform="translate(0.000000,150.000000) scale(0.100000,-0.100000)"
fill="#000000" stroke="none">
<path d="M500 786 l0 -283 -31 -7 c-35 -7 -30 -26 7 -26 19 0 24 -5 24 -25 0
-14 5 -25 10 -25 6 0 10 11 10 25 l0 25 284 0 c257 0 327 6 280 24 -9 3 -139
6 -290 6 l-274 0 0 285 c0 183 -4 285 -10 285 -6 0 -10 -101 -10 -284z"/>
<path d="M1047 940 c-20 -27 -41 -50 -45 -50 -5 0 -23 16 -42 35 -19 19 -37
35 -40 35 -4 0 -17 -51 -30 -112 -12 -62 -26 -117 -30 -121 -4 -5 -17 3 -28
18 l-21 26 -14 -23 c-8 -13 -27 -43 -42 -67 l-27 -43 -23 22 c-13 12 -28 21
-33 19 -13 -5 -112 -129 -112 -140 0 -17 8 -9 60 57 l53 65 28 -27 28 -27 42
67 42 68 24 -31 c14 -17 28 -29 32 -26 5 2 18 56 31 120 12 63 26 115 29 115
4 0 20 -13 36 -30 16 -16 32 -30 36 -30 11 0 91 110 87 121 -2 5 -20 -13 -41
-41z"/>
</g>
</svg>
